<?xml version="1.0" encoding="UTF-8" standalone="no"?><!-- Generator: Gravit.io --><svg xmlns="http://www.w3.org/2000/svg" xmlns:xlink="http://www.w3.org/1999/xlink" style="isolation:isolate" viewBox="-2433 -2888 170 170" width="170pt" height="170pt"><g style="isolation:isolate"><rect x="-2433" y="-2888" width="170" height="170" transform="matrix(1,0,0,1,0,0)" fill="rgb(35,38,41)"/><g><path d=" M -2348.054 -2832.004 L -2348.054 -2832.004 Q -2345.769 -2832.004 -2344.299 -2830.481 L -2344.299 -2830.481 L -2344.299 -2830.481 Q -2342.83 -2828.957 -2342.83 -2826.781 L -2342.83 -2826.781 L -2342.83 -2797.83 L -2342.83 -2797.83 Q -2342.83 -2786.512 -2349.088 -2780.253 L -2349.088 -2780.253 L -2349.088 -2780.253 Q -2355.346 -2773.995 -2366.774 -2773.995 L -2366.774 -2773.995 L -2366.774 -2773.995 Q -2378.093 -2773.995 -2384.296 -2780.253 L -2384.296 -2780.253 L -2384.296 -2780.253 Q -2390.5 -2786.512 -2390.5 -2797.83 L -2390.5 -2797.83 L -2390.5 -2826.781 L -2390.5 -2826.781 Q -2390.5 -2828.957 -2389.031 -2830.481 L -2389.031 -2830.481 L -2389.031 -2830.481 Q -2387.562 -2832.004 -2385.385 -2832.004 L -2385.385 -2832.004 L -2385.385 -2832.004 Q -2383.099 -2832.004 -2381.63 -2830.481 L -2381.63 -2830.481 L -2381.63 -2830.481 Q -2380.161 -2828.957 -2380.161 -2826.781 L -2380.161 -2826.781 L -2380.161 -2797.83 L -2380.161 -2797.83 Q -2380.161 -2783.573 -2366.774 -2783.573 L -2366.774 -2783.573 L -2366.774 -2783.573 Q -2360.135 -2783.573 -2356.652 -2787.165 L -2356.652 -2787.165 L -2356.652 -2787.165 Q -2353.17 -2790.756 -2353.17 -2797.83 L -2353.17 -2797.83 L -2353.17 -2826.781 L -2353.17 -2826.781 Q -2353.17 -2828.957 -2351.7 -2830.481 L -2351.7 -2830.481 L -2351.7 -2830.481 Q -2350.231 -2832.004 -2348.054 -2832.004 L -2348.054 -2832.004 Z " fill="rgb(255,255,255)"/><path d=" M -2310.724 -2773.996 L -2310.724 -2773.996 Q -2308.438 -2773.996 -2306.969 -2775.519 L -2306.969 -2775.519 L -2306.969 -2775.519 Q -2305.5 -2777.043 -2305.5 -2779.219 L -2305.5 -2779.219 L -2305.5 -2808.17 L -2305.5 -2808.17 Q -2305.5 -2819.488 -2311.758 -2825.747 L -2311.758 -2825.747 L -2311.758 -2825.747 Q -2318.016 -2832.005 -2329.444 -2832.005 L -2329.444 -2832.005 L -2329.444 -2832.005 Q -2340.763 -2832.005 -2346.966 -2825.747 L -2346.966 -2825.747 L -2346.966 -2825.747 Q -2353.17 -2819.488 -2353.17 -2808.17 L -2353.17 -2808.17 L -2353.17 -2779.219 L -2353.17 -2779.219 Q -2353.17 -2777.043 -2351.701 -2775.519 L -2351.701 -2775.519 L -2351.701 -2775.519 Q -2350.231 -2773.996 -2348.054 -2773.996 L -2348.054 -2773.996 L -2348.054 -2773.996 Q -2345.769 -2773.996 -2344.3 -2775.519 L -2344.3 -2775.519 L -2344.3 -2775.519 Q -2342.83 -2777.043 -2342.83 -2779.219 L -2342.83 -2779.219 L -2342.83 -2808.17 L -2342.83 -2808.17 Q -2342.83 -2822.427 -2329.444 -2822.427 L -2329.444 -2822.427 L -2329.444 -2822.427 Q -2322.805 -2822.427 -2319.322 -2818.835 L -2319.322 -2818.835 L -2319.322 -2818.835 Q -2315.839 -2815.244 -2315.839 -2808.17 L -2315.839 -2808.17 L -2315.839 -2779.219 L -2315.839 -2779.219 Q -2315.839 -2777.043 -2314.37 -2775.519 L -2314.37 -2775.519 L -2314.37 -2775.519 Q -2312.901 -2773.996 -2310.724 -2773.996 L -2310.724 -2773.996 Z " fill="rgb(255,255,255)"/><path d=" M -2348.054 -2832.005 L -2329.335 -2832.005 L -2329.335 -2825.747 L -2348.054 -2825.747 L -2348.054 -2832.005 Z " fill="rgb(255,255,255)"/><path d=" M -2366.665 -2780.254 L -2347.946 -2780.254 L -2347.946 -2773.996 L -2366.665 -2773.996 L -2366.665 -2780.254 Z " fill="rgb(255,255,255)"/></g></g></svg>